<mxfile host="app.diagrams.net" modified="2022-02-23T13:45:57.748Z" agent="5.0 (Macintosh)" etag="C28L0C5AejfhWR_3KwFD" version="16.6.1" type="github">
  <diagram id="uM3Ol_a-0bIkyW1_FF8-" name="Page-1">
    <mxGraphModel dx="946" dy="515" grid="1" gridSize="10" guides="1" tooltips="1" connect="1" arrows="1" fold="1" page="1" pageScale="1" pageWidth="850" pageHeight="1100" math="0" shadow="0">
      <root>
        <mxCell id="0" />
        <mxCell id="1" parent="0" />
        <mxCell id="ERwkLROsBh7H98yp4UQ0-1" value="&lt;div&gt;Tripadvisor has 23 subsidaries&lt;/div&gt;&lt;div&gt;TheFork, Viator, Tripadvisor, CruiseCritic&lt;br&gt;&lt;/div&gt;&lt;div&gt;&lt;br&gt;&lt;/div&gt;&lt;div&gt;Visitor Id&lt;/div&gt;&lt;div&gt;&lt;br&gt;&lt;/div&gt;&lt;div&gt;Visitor Id, created_at, expires_at, json_blob&lt;br&gt;&lt;/div&gt;" style="text;html=1;strokeColor=none;fillColor=none;align=center;verticalAlign=middle;whiteSpace=wrap;rounded=0;" vertex="1" parent="1">
          <mxGeometry x="50" y="20" width="280" height="130" as="geometry" />
        </mxCell>
        <mxCell id="ERwkLROsBh7H98yp4UQ0-4" style="edgeStyle=orthogonalEdgeStyle;rounded=0;orthogonalLoop=1;jettySize=auto;html=1;" edge="1" parent="1" source="ERwkLROsBh7H98yp4UQ0-2" target="ERwkLROsBh7H98yp4UQ0-3">
          <mxGeometry relative="1" as="geometry" />
        </mxCell>
        <mxCell id="ERwkLROsBh7H98yp4UQ0-9" style="edgeStyle=orthogonalEdgeStyle;rounded=0;orthogonalLoop=1;jettySize=auto;html=1;" edge="1" parent="1" source="ERwkLROsBh7H98yp4UQ0-2" target="ERwkLROsBh7H98yp4UQ0-8">
          <mxGeometry relative="1" as="geometry">
            <Array as="points">
              <mxPoint x="250" y="320" />
            </Array>
          </mxGeometry>
        </mxCell>
        <mxCell id="ERwkLROsBh7H98yp4UQ0-11" style="edgeStyle=orthogonalEdgeStyle;rounded=0;orthogonalLoop=1;jettySize=auto;html=1;entryX=0;entryY=0;entryDx=0;entryDy=0;" edge="1" parent="1" source="ERwkLROsBh7H98yp4UQ0-2" target="ERwkLROsBh7H98yp4UQ0-7">
          <mxGeometry relative="1" as="geometry">
            <Array as="points">
              <mxPoint x="350" y="250" />
              <mxPoint x="350" y="372" />
            </Array>
          </mxGeometry>
        </mxCell>
        <mxCell id="ERwkLROsBh7H98yp4UQ0-14" style="edgeStyle=orthogonalEdgeStyle;rounded=0;orthogonalLoop=1;jettySize=auto;html=1;entryX=0;entryY=0.5;entryDx=0;entryDy=0;" edge="1" parent="1" source="ERwkLROsBh7H98yp4UQ0-2" target="ERwkLROsBh7H98yp4UQ0-13">
          <mxGeometry relative="1" as="geometry" />
        </mxCell>
        <mxCell id="ERwkLROsBh7H98yp4UQ0-2" value="Visitor Id A" style="ellipse;whiteSpace=wrap;html=1;" vertex="1" parent="1">
          <mxGeometry x="200" y="210" width="100" height="80" as="geometry" />
        </mxCell>
        <mxCell id="ERwkLROsBh7H98yp4UQ0-3" value="TA Device Id" style="ellipse;whiteSpace=wrap;html=1;" vertex="1" parent="1">
          <mxGeometry x="425" y="210" width="120" height="80" as="geometry" />
        </mxCell>
        <mxCell id="ERwkLROsBh7H98yp4UQ0-5" style="edgeStyle=orthogonalEdgeStyle;rounded=0;orthogonalLoop=1;jettySize=auto;html=1;" edge="1" parent="1" source="ERwkLROsBh7H98yp4UQ0-6" target="ERwkLROsBh7H98yp4UQ0-7">
          <mxGeometry relative="1" as="geometry" />
        </mxCell>
        <mxCell id="ERwkLROsBh7H98yp4UQ0-6" value="Visitor Id B" style="ellipse;whiteSpace=wrap;html=1;" vertex="1" parent="1">
          <mxGeometry x="200" y="360" width="120" height="80" as="geometry" />
        </mxCell>
        <mxCell id="ERwkLROsBh7H98yp4UQ0-7" value="Cookie" style="ellipse;whiteSpace=wrap;html=1;fillColor=#f8cecc;strokeColor=#b85450;" vertex="1" parent="1">
          <mxGeometry x="420" y="360" width="120" height="80" as="geometry" />
        </mxCell>
        <mxCell id="ERwkLROsBh7H98yp4UQ0-8" value="User Id" style="ellipse;whiteSpace=wrap;html=1;" vertex="1" parent="1">
          <mxGeometry x="530" y="280" width="120" height="80" as="geometry" />
        </mxCell>
        <mxCell id="ERwkLROsBh7H98yp4UQ0-13" value="Cookie" style="ellipse;whiteSpace=wrap;html=1;" vertex="1" parent="1">
          <mxGeometry x="450" y="90" width="120" height="80" as="geometry" />
        </mxCell>
        <mxCell id="ERwkLROsBh7H98yp4UQ0-15" value="&lt;div&gt;US&lt;/div&gt;&lt;div&gt;on-prem&lt;br&gt;&lt;/div&gt;" style="shape=cylinder3;whiteSpace=wrap;html=1;boundedLbl=1;backgroundOutline=1;size=15;" vertex="1" parent="1">
          <mxGeometry x="200" y="640" width="60" height="80" as="geometry" />
        </mxCell>
        <mxCell id="ERwkLROsBh7H98yp4UQ0-16" value="&lt;div&gt;AWS&lt;/div&gt;&lt;div&gt;eu-central&lt;br&gt;&lt;/div&gt;" style="shape=cylinder3;whiteSpace=wrap;html=1;boundedLbl=1;backgroundOutline=1;size=15;" vertex="1" parent="1">
          <mxGeometry x="440" y="650" width="60" height="80" as="geometry" />
        </mxCell>
        <mxCell id="ERwkLROsBh7H98yp4UQ0-17" value="&lt;div&gt;AWS&lt;/div&gt;&lt;div&gt;APAC&lt;br&gt;&lt;/div&gt;" style="shape=cylinder3;whiteSpace=wrap;html=1;boundedLbl=1;backgroundOutline=1;size=15;" vertex="1" parent="1">
          <mxGeometry x="660" y="650" width="60" height="80" as="geometry" />
        </mxCell>
        <mxCell id="ERwkLROsBh7H98yp4UQ0-20" style="edgeStyle=orthogonalEdgeStyle;rounded=0;orthogonalLoop=1;jettySize=auto;html=1;" edge="1" parent="1" source="ERwkLROsBh7H98yp4UQ0-18" target="ERwkLROsBh7H98yp4UQ0-15">
          <mxGeometry relative="1" as="geometry" />
        </mxCell>
        <mxCell id="ERwkLROsBh7H98yp4UQ0-18" value="visitor-core" style="html=1;dropTarget=0;" vertex="1" parent="1">
          <mxGeometry x="160" y="520" width="120" height="60" as="geometry" />
        </mxCell>
        <mxCell id="ERwkLROsBh7H98yp4UQ0-19" value="" style="shape=module;jettyWidth=8;jettyHeight=4;" vertex="1" parent="ERwkLROsBh7H98yp4UQ0-18">
          <mxGeometry x="1" width="20" height="20" relative="1" as="geometry">
            <mxPoint x="-27" y="7" as="offset" />
          </mxGeometry>
        </mxCell>
        <mxCell id="ERwkLROsBh7H98yp4UQ0-26" style="edgeStyle=orthogonalEdgeStyle;rounded=0;orthogonalLoop=1;jettySize=auto;html=1;entryX=0.5;entryY=0;entryDx=0;entryDy=0;entryPerimeter=0;" edge="1" parent="1" source="ERwkLROsBh7H98yp4UQ0-21" target="ERwkLROsBh7H98yp4UQ0-16">
          <mxGeometry relative="1" as="geometry" />
        </mxCell>
        <mxCell id="ERwkLROsBh7H98yp4UQ0-21" value="visitor-core" style="html=1;dropTarget=0;" vertex="1" parent="1">
          <mxGeometry x="400" y="520" width="120" height="60" as="geometry" />
        </mxCell>
        <mxCell id="ERwkLROsBh7H98yp4UQ0-22" value="" style="shape=module;jettyWidth=8;jettyHeight=4;" vertex="1" parent="ERwkLROsBh7H98yp4UQ0-21">
          <mxGeometry x="1" width="20" height="20" relative="1" as="geometry">
            <mxPoint x="-27" y="7" as="offset" />
          </mxGeometry>
        </mxCell>
        <mxCell id="ERwkLROsBh7H98yp4UQ0-25" style="edgeStyle=orthogonalEdgeStyle;rounded=0;orthogonalLoop=1;jettySize=auto;html=1;" edge="1" parent="1" source="ERwkLROsBh7H98yp4UQ0-23" target="ERwkLROsBh7H98yp4UQ0-17">
          <mxGeometry relative="1" as="geometry" />
        </mxCell>
        <mxCell id="ERwkLROsBh7H98yp4UQ0-23" value="visitor-core" style="html=1;dropTarget=0;" vertex="1" parent="1">
          <mxGeometry x="620" y="520" width="120" height="60" as="geometry" />
        </mxCell>
        <mxCell id="ERwkLROsBh7H98yp4UQ0-24" value="" style="shape=module;jettyWidth=8;jettyHeight=4;" vertex="1" parent="ERwkLROsBh7H98yp4UQ0-23">
          <mxGeometry x="1" width="20" height="20" relative="1" as="geometry">
            <mxPoint x="-27" y="7" as="offset" />
          </mxGeometry>
        </mxCell>
        <mxCell id="ERwkLROsBh7H98yp4UQ0-27" value="" style="endArrow=classic;startArrow=classic;html=1;rounded=0;exitX=1;exitY=0;exitDx=0;exitDy=52.5;exitPerimeter=0;" edge="1" parent="1" source="ERwkLROsBh7H98yp4UQ0-15" target="ERwkLROsBh7H98yp4UQ0-16">
          <mxGeometry width="50" height="50" relative="1" as="geometry">
            <mxPoint x="310" y="770" as="sourcePoint" />
            <mxPoint x="360" y="720" as="targetPoint" />
          </mxGeometry>
        </mxCell>
        <mxCell id="ERwkLROsBh7H98yp4UQ0-30" value="" style="endArrow=classic;startArrow=classic;html=1;rounded=0;exitX=1;exitY=0.5;exitDx=0;exitDy=0;exitPerimeter=0;" edge="1" parent="1" source="ERwkLROsBh7H98yp4UQ0-16" target="ERwkLROsBh7H98yp4UQ0-17">
          <mxGeometry width="50" height="50" relative="1" as="geometry">
            <mxPoint x="490" y="690" as="sourcePoint" />
            <mxPoint x="450" y="700.3571428571429" as="targetPoint" />
          </mxGeometry>
        </mxCell>
        <mxCell id="ERwkLROsBh7H98yp4UQ0-31" value="VisitorCore" style="swimlane;fontStyle=0;childLayout=stackLayout;horizontal=1;startSize=30;horizontalStack=0;resizeParent=1;resizeParentMax=0;resizeLast=0;collapsible=1;marginBottom=0;" vertex="1" parent="1">
          <mxGeometry x="90" y="770" width="270" height="60" as="geometry" />
        </mxCell>
        <mxCell id="ERwkLROsBh7H98yp4UQ0-32" value="getVisitorToken(IdentifierType, Identifier)" style="text;strokeColor=none;fillColor=none;align=left;verticalAlign=middle;spacingLeft=4;spacingRight=4;overflow=hidden;points=[[0,0.5],[1,0.5]];portConstraint=eastwest;rotatable=0;" vertex="1" parent="ERwkLROsBh7H98yp4UQ0-31">
          <mxGeometry y="30" width="270" height="30" as="geometry" />
        </mxCell>
        <mxCell id="ERwkLROsBh7H98yp4UQ0-35" value="&lt;div&gt;profile{&lt;/div&gt;&lt;div&gt;&amp;nbsp;socialConnections&lt;/div&gt;&lt;div&gt;profileDetail&lt;br&gt;&lt;/div&gt;&lt;div&gt;reviewService&lt;br&gt;&lt;/div&gt;&lt;div&gt;}&lt;/div&gt;" style="text;html=1;strokeColor=none;fillColor=none;align=center;verticalAlign=middle;whiteSpace=wrap;rounded=0;" vertex="1" parent="1">
          <mxGeometry x="440" y="800" width="230" height="100" as="geometry" />
        </mxCell>
        <mxCell id="ERwkLROsBh7H98yp4UQ0-36" value="&lt;div&gt;10 nodes&lt;/div&gt;&lt;div&gt;3 replication factor&lt;br&gt;&lt;/div&gt;&lt;div&gt;quorum 2/3 has to ack &lt;br&gt;&lt;/div&gt;&lt;div&gt;one 1/3 has to ack&lt;br&gt;&lt;/div&gt;" style="text;html=1;strokeColor=none;fillColor=none;align=center;verticalAlign=middle;whiteSpace=wrap;rounded=0;" vertex="1" parent="1">
          <mxGeometry x="90" y="900" width="270" height="100" as="geometry" />
        </mxCell>
      </root>
    </mxGraphModel>
  </diagram>
</mxfile>
